<?xml version="1.0" encoding="UTF-8"?>
<svg xmlns="http://www.w3.org/2000/svg" xmlns:xlink="http://www.w3.org/1999/xlink" version="1.1" id="Ebene_1" x="0px" y="0px" viewBox="0 0 186 90" style="enable-background:new 0 0 186 90;" xml:space="preserve">
<style type="text/css">
	.st0{fill:#FFFFFF;}
	.st1{fill:#E57591;}
	.st2{fill:#D41948;}
</style>
<g id="mseGruppeSVG">
	<path class="st0" d="M125.1,78.3v5.9c-0.6,0.3-1.3,0.5-2,0.6c-0.8,0.2-1.7,0.3-2.5,0.2c-1.1,0-2.3-0.2-3.3-0.8   c-0.9-0.5-1.7-1.3-2.1-2.3c-0.5-1.1-0.8-2.3-0.7-3.5c0-1.2,0.2-2.4,0.7-3.5c0.4-0.9,1.2-1.7,2.1-2.2c1-0.5,2.1-0.8,3.2-0.8   c0.8,0,1.7,0.1,2.5,0.4c0.7,0.3,1.4,0.7,1.9,1.2l-0.6,1.1c-0.5-0.5-1.2-0.9-1.8-1.2c-0.6-0.2-1.3-0.4-2-0.3   c-1.3-0.1-2.5,0.4-3.3,1.4c-0.8,1.1-1.2,2.5-1.1,3.9c-0.1,1.4,0.3,2.9,1.2,4c0.9,0.9,2.2,1.4,3.5,1.3c1,0,2.1-0.2,3.1-0.5v-3.9   h-3.2v-1.2H125.1z"></path>
	<path class="st0" d="M132.9,75.8v1.3c-0.3-0.1-0.7-0.1-1-0.1c-0.7-0.1-1.5,0.2-1.9,0.8c-0.4,0.6-0.7,1.3-0.6,2V85h-1.5v-6.5   c0-0.8,0-1.7-0.1-2.5h1.4l0.1,1.7c0.2-0.6,0.6-1.1,1.1-1.4C131.2,75.7,132.1,75.6,132.9,75.8z"></path>
	<path class="st0" d="M142,75.9v9h-1.4v-1.5c-0.3,0.5-0.7,1-1.2,1.3c-0.5,0.3-1.1,0.4-1.8,0.4c-0.9,0.1-1.8-0.3-2.4-0.9   c-0.6-0.8-0.9-1.7-0.8-2.7v-5.6h1.5v5.6c-0.1,0.6,0.1,1.3,0.5,1.8c0.4,0.4,1,0.6,1.5,0.6c0.7,0,1.4-0.3,1.9-0.8   c0.5-0.6,0.8-1.3,0.7-2.1v-5.1H142z"></path>
	<path class="st0" d="M151.4,76.3c0.6,0.4,1.1,1,1.4,1.7c0.3,0.8,0.5,1.6,0.5,2.5c0,0.8-0.1,1.7-0.5,2.4c-0.6,1.4-2,2.3-3.5,2.2   c-0.6,0-1.3-0.1-1.9-0.5c-0.5-0.3-0.9-0.8-1.2-1.3v5.6h-1.5V78.5c0-0.8,0-1.7-0.1-2.5h1.4l0.1,1.7c0.2-0.6,0.7-1.1,1.2-1.4   c0.6-0.4,1.2-0.5,1.9-0.5C150.1,75.7,150.8,75.9,151.4,76.3z M151.1,83c0.5-0.7,0.8-1.6,0.7-2.6c0.1-0.9-0.2-1.8-0.7-2.6   c-1-1.1-2.8-1.2-3.9-0.2c-0.1,0.1-0.1,0.1-0.2,0.2c-0.9,1.6-0.9,3.6,0,5.1c1.1,1.1,2.8,1.2,4,0.2C151,83.1,151.1,83.1,151.1,83   L151.1,83z"></path>
	<path class="st0" d="M162.2,76.3c0.6,0.4,1.1,1,1.4,1.7c0.3,0.8,0.5,1.6,0.5,2.5c0,0.8-0.1,1.7-0.5,2.4c-0.6,1.4-2,2.3-3.5,2.2   c-0.6,0-1.3-0.1-1.9-0.5c-0.5-0.3-0.9-0.8-1.2-1.3v5.6h-1.5V78.5c0-0.8,0-1.7-0.1-2.5h1.4l0.1,1.7c0.2-0.6,0.7-1.1,1.2-1.4   c0.6-0.4,1.2-0.5,1.9-0.5C160.9,75.7,161.6,75.9,162.2,76.3z M161.9,83c0.5-0.7,0.8-1.6,0.7-2.6c0.1-0.9-0.2-1.8-0.7-2.6   c-1-1.1-2.8-1.2-3.9-0.2c-0.1,0.1-0.1,0.1-0.2,0.2c-1,1.6-1,3.6,0,5.2c1.1,1.1,2.8,1.2,4,0.2C161.8,83.1,161.9,83.1,161.9,83   L161.9,83z"></path>
	<path class="st0" d="M174,80.4h-6.6c-0.1,0.9,0.2,1.9,0.8,2.6c0.6,0.6,1.4,0.9,2.3,0.9c1.1,0,2.1-0.4,2.9-1.1l0.5,1.1   c-0.4,0.4-1,0.7-1.5,0.9c-0.6,0.2-1.3,0.3-1.9,0.3c-1.2,0.1-2.4-0.4-3.3-1.2c-0.8-0.9-1.3-2.2-1.2-3.4c0-0.8,0.2-1.7,0.5-2.4   c0.3-0.7,0.9-1.3,1.5-1.7c0.7-0.4,1.4-0.6,2.2-0.6c1.1-0.1,2.1,0.4,2.9,1.2c0.7,0.9,1.1,2.1,1,3.2V80.4z M168.3,77.5   c-0.5,0.5-0.8,1.2-0.9,1.9h5.3c0-0.7-0.3-1.4-0.8-2c-0.5-0.5-1.1-0.7-1.8-0.7C169.5,76.8,168.8,77.1,168.3,77.5L168.3,77.5z"></path>
	<g id="_2Screens_mseGruppe">
		<g id="ScreenBack">
			<polygon class="st1" points="154,7 154,12 179,12 179,35 184,35 184,7    "></polygon>
		</g>
		<path id="ScreenFront" class="st2" d="M144,17v28h30V17H144z M169,40h-20V22h20V40z"></path>
	</g>
	<path class="st0" d="M60.2,40.4V63h-7.3V40.7c0-3.1-0.5-5.4-1.6-6.8c-1.1-1.4-2.8-2.2-5.2-2.2c-2.5-0.1-5,1-6.6,2.9   c-1.7,2.2-2.6,5-2.4,7.8V63h-7.3V40.7c0-3.1-0.5-5.4-1.6-6.8c-1.1-1.4-2.8-2.2-5.2-2.2c-2.5-0.1-5,1-6.6,2.9   c-1.7,2.2-2.6,5-2.4,7.8V63H6.7V36.9c0-3.4-0.2-6.8-0.6-10.2h6.8l0.6,6c1-2.1,2.5-3.8,4.5-5.1c2.1-1.2,4.5-1.9,7-1.8   c5.6,0,9.3,2.3,11,7c1.1-2.1,2.8-3.9,4.9-5.1c2.2-1.3,4.7-1.9,7.2-1.9C56.1,25.9,60.2,30.7,60.2,40.4z"></path>
	<path class="st0" d="M67.6,58.9l2.2-5.3c3.7,2.9,8.3,4.4,13,4.3c2,0.1,3.9-0.3,5.7-1.3c1.2-0.7,2-2.1,1.9-3.6   c0.1-1.2-0.4-2.3-1.3-3.1c-1.3-0.9-2.9-1.6-4.5-1.9l-6-1.4c-2.7-0.4-5.2-1.7-7.2-3.6c-1.7-1.7-2.6-4-2.5-6.4   c-0.1-3.1,1.4-6.1,3.9-7.9c2.6-2,6.1-3,10.4-3c2.5,0,5,0.4,7.4,1.2c2.2,0.7,4.2,1.9,5.9,3.5l-2.2,5.1c-3.1-2.6-7-4.1-11.1-4.2   c-1.9-0.1-3.8,0.4-5.5,1.3c-1.3,0.8-2,2.2-2,3.7c0,1.1,0.4,2.2,1.2,3c1.1,0.9,2.5,1.5,3.9,1.8l6.2,1.5c3.5,0.8,6,2,7.7,3.6   c1.7,1.7,2.6,4,2.5,6.4c0.1,3.1-1.4,6-3.9,7.7c-2.6,1.9-6.2,2.8-10.7,2.8C76.2,63.5,71.2,62,67.6,58.9z"></path>
	<path class="st0" d="M136,45h-25.9c0.2,8.5,4.1,12.7,11.6,12.7c4.2,0,8.2-1.4,11.4-4.1l2.2,5.2c-1.8,1.5-3.9,2.7-6.2,3.4   c-2.4,0.8-5,1.3-7.6,1.3c-5.8,0-10.4-1.7-13.7-5c-3.3-3.3-5-7.9-5-13.7c-0.1-3.4,0.7-6.8,2.2-9.9c1.4-2.8,3.5-5.1,6.2-6.7   c2.7-1.6,5.8-2.4,9-2.4c4.9,0,8.8,1.6,11.6,4.8s4.2,7.6,4.3,13.2V45z M113.7,33.7c-1.9,1.9-3,4.4-3.3,7h19.2   c-0.1-2.6-1.1-5.1-2.8-7c-1.7-1.7-4-2.5-6.4-2.4C117.9,31.2,115.5,32,113.7,33.7z"></path>
</g>
</svg>
