<svg width="200" height="59" viewBox="0 0 200 59" fill="none" xmlns="http://www.w3.org/2000/svg">
<g clip-path="url(#clip0_20_2964)">
<path d="M3.52734 55.3792V44.3033H5.07937V55.3792H3.52734Z" fill="black"/>
<path d="M6.70197 51.358C6.70197 48.8184 8.46563 47.0547 11.0053 47.0547C13.4745 47.0547 15.2381 48.8889 15.2381 51.2875V51.8519H8.25399C8.32454 53.2628 9.45329 54.2505 11.0759 54.2505C12.2046 54.2505 13.1217 53.7566 13.8272 52.6984L14.9559 53.545C14.1094 54.8148 12.769 55.5203 11.0759 55.5203C8.46563 55.5908 6.70197 53.8977 6.70197 51.358ZM13.6861 50.6526C13.545 49.3827 12.4163 48.3951 11.0053 48.3951C9.52384 48.3951 8.39509 49.3827 8.32454 50.6526H13.6861Z" fill="black"/>
<path d="M16.7901 45.9259V44.3033H18.4832V45.9259H16.7901ZM16.8606 55.3792V47.3369H18.4127V55.3792H16.8606Z" fill="black"/>
<path d="M20.388 58.7655V47.3369H21.8695V48.254C22.5044 47.5485 23.4921 47.1252 24.6914 47.1252C27.0899 47.1252 28.8536 48.9595 28.8536 51.358C28.8536 53.7566 27.0899 55.5909 24.6208 55.5909C23.4215 55.5909 22.3633 55.097 21.8695 54.5327V58.836H20.388V58.7655ZM27.3721 51.358C27.3721 49.5944 26.2434 48.4656 24.6208 48.4656C23.0688 48.4656 21.94 49.5238 21.94 50.7937V51.8519C21.94 53.1217 23.0688 54.1799 24.6208 54.1799C26.1728 54.1799 27.3721 53.0512 27.3721 51.358Z" fill="black"/>
<path d="M29.7708 55.3792V54.1799L35.7672 48.7478H30.0529V47.4074H38.0953V48.6067L32.0988 54.0388H38.0953V55.3792H29.7708Z" fill="black"/>
<path d="M39.4356 45.9259V44.3033H41.1287V45.9259H39.4356ZM39.5767 55.3792V47.3369H41.1287V55.3792H39.5767Z" fill="black"/>
<path d="M43.3157 56.7901L44.5856 56.0141C45.2205 57.2134 46.067 57.6367 47.4074 57.6367C48.8889 57.6367 49.9471 56.6491 49.9471 55.3087V54.3916C49.3122 55.1676 48.3245 55.5909 47.0547 55.5909C44.515 55.5909 42.7513 53.8272 42.7513 51.358C42.7513 48.9595 44.5856 47.1252 46.9841 47.1252C48.1834 47.1252 49.2416 47.5485 49.8766 48.254V47.3369H51.4286V55.3792C51.4286 57.4956 49.7355 59.0476 47.3369 59.0476C45.5027 58.9771 44.0917 58.2011 43.3157 56.7901ZM49.8766 51.8519V50.7937C49.8766 49.5238 48.6773 48.4656 47.1252 48.4656C45.4321 48.4656 44.3034 49.5944 44.3034 51.2875C44.3034 53.0512 45.3616 54.1799 47.1958 54.1799C48.6773 54.1799 49.8766 53.1923 49.8766 51.8519Z" fill="black"/>
<path d="M108.36 1.12878H101.235V7.54854H95.1675V7.76018V13.6156H101.235V24.903C101.235 30.6879 103.845 33.157 110.265 33.157H115.697V26.5256H111.041C108.995 26.5256 108.43 26.0318 108.43 24.4092V13.6861H116.684V7.61908H108.43V1.12878H108.36Z" fill="black"/>
<path d="M19.2593 6.84302C15.8025 6.84302 12.6984 7.97177 10.582 10.0176H10.5115V7.61903H3.59788H0V13.6861H3.59788V33.298H10.7937V19.5414C10.7937 15.8025 13.6861 13.2628 17.7778 13.2628C21.8695 13.2628 24.4797 15.6614 24.4797 19.5414V33.2275H31.6755V18.6243C31.5344 11.6402 26.5256 6.84302 19.2593 6.84302Z" fill="black"/>
<path d="M49.03 28.2187C44.7266 28.2187 41.9753 26.1023 41.7637 22.716H62.6455V20.6702C62.6455 12.8395 57.2134 6.84302 48.6772 6.84302C40.5644 6.84302 34.709 12.5573 34.709 20.4585C34.709 28.5714 40.1411 34.0035 49.1711 34.0035C54.5326 34.0035 58.4127 32.1693 61.5167 28.8536L57.0723 24.4092C54.321 27.0194 52.134 28.2187 49.03 28.2187ZM48.7478 12.6984C52.5573 12.6984 55.2381 14.6032 55.5908 17.7072H41.8342C42.1869 14.6032 44.8677 12.6984 48.7478 12.6984Z" fill="black"/>
<path d="M93.3334 7.61908H84.3034L77.8131 15.873H77.7425H77.672L71.1817 7.61908H62.1517L73.0864 20.3175L61.8695 33.2981H70.8995L77.672 24.6914H77.7425H77.8131L84.5856 33.2981H93.6155L82.3986 20.3175L93.3334 7.61908Z" fill="black"/>
<path d="M124.021 1.12878V7.1958H127.619V33.2981H134.815V1.12878H124.021Z" fill="black"/>
<path d="M155.414 21.3757C164.233 18.7654 167.548 15.8025 167.548 10.1587C167.548 4.37391 161.975 0.0705566 154.427 0.0705566C145.75 0.0705566 139.612 4.93828 138.906 12.3457L146.032 13.0512C146.737 8.7478 149.63 6.41976 154.427 6.41976C158.025 6.41976 160.423 7.97179 160.423 10.3704C160.423 12.9806 158.518 14.2504 151.252 16.4374C146.596 17.8483 143.774 19.4709 141.658 21.5873C139.965 23.351 139.118 25.679 139.118 28.5714V33.4392H167.125V27.1605H146.878C146.949 26.0318 147.231 25.3968 147.866 24.7619C148.924 23.5626 150.97 22.6455 155.414 21.3757Z" fill="black"/>
<path d="M186.173 11.1464C182.857 11.1464 180.106 11.8519 177.848 13.2628L177.778 13.1923L178.765 7.19579H196.473V1.05823H173.333L170.229 17.9894L176.861 19.8237C179.33 17.7778 182.081 16.7901 185.044 16.7901C189.912 16.7901 192.875 19.1182 192.875 22.3633C192.875 25.679 189.912 27.866 185.185 27.866C180.952 27.866 177.778 26.2434 176.508 22.6455L169.877 25.0441C171.781 30.8289 177.284 34.0741 185.256 34.0741C194.356 34.0741 200.141 29.6297 200.141 22.6455C200 15.873 194.286 11.1464 186.173 11.1464Z" fill="black"/>
</g>
<defs>
<clipPath id="clip0_20_2964">
<rect width="200" height="58.9771" fill="white"/>
</clipPath>
</defs>
</svg>
