<?xml version="1.0" encoding="UTF-8"?>
<svg id="Ebene_2" data-name="Ebene 2" xmlns="http://www.w3.org/2000/svg" viewBox="0 0 129.54 44.42">
  <defs>
    <style>
      .cls-1 {
        fill: #fff;
        stroke-width: 0px;
      }
    </style>
  </defs>
  <g id="Backdrop">
    <g>
      <g id="Energy">
        <path class="cls-1" d="M38.74,24.54c-1.39-.12-2.82-.2-4.24-.2s-2.84.07-4.24.2c-3.02.26-5.34,2.79-5.35,5.83v13.86h2.53v-13.86c.01-1.77,1.38-3.22,3.14-3.34,1.29-.09,2.59-.16,3.92-.16s2.63.07,3.92.16c1.76.12,3.13,1.57,3.14,3.34v13.86h2.53v-13.86c0-3.04-2.33-5.57-5.35-5.83ZM63.34,24.51c-1.73-.09-3.47-.16-5.23-.16s-3.51.07-5.23.16c-3.12.16-5.57,2.74-5.58,5.86v8.03c.01,3.13,2.46,5.7,5.58,5.86,1.73.09,3.47.16,5.23.16s3.51-.07,5.23-.16c3.12-.16,5.57-2.73,5.58-5.86v-.45h-2.53v.45c0,1.77-1.39,3.23-3.16,3.33-1.69.1-3.4.17-5.13.17s-3.44-.07-5.13-.17c-1.77-.1-3.15-1.56-3.16-3.33v-8.03c0-1.77,1.39-3.23,3.16-3.33,1.69-.1,3.4-.17,5.13-.17s3.44.07,5.13.17c1.77.1,3.15,1.56,3.16,3.33v2.72h-10.43v2.59h12.95v-5.31c-.01-3.13-2.46-5.7-5.58-5.86ZM16.05,24.51c-1.73-.09-3.47-.16-5.23-.16s-3.51.07-5.23.16c-3.12.16-5.57,2.74-5.58,5.86v8.03c.01,3.13,2.46,5.7,5.58,5.86,1.73.09,3.47.16,5.23.16s3.51-.07,5.23-.16c3.12-.16,5.57-2.73,5.58-5.86v-.45h-2.53v.45c0,1.77-1.39,3.23-3.16,3.33-1.69.1-3.4.17-5.13.17s-3.44-.07-5.13-.17c-1.77-.1-3.15-1.56-3.16-3.33v-8.03c0-1.77,1.39-3.23,3.16-3.33,1.69-.1,3.4-.17,5.13-.17s3.44.07,5.13.17c1.77.1,3.15,1.56,3.16,3.33v2.72h-10.43v2.59h12.95v-5.31c-.01-3.13-2.46-5.7-5.58-5.86h0ZM101.23,24.51c-1.73-.09-3.47-.16-5.23-.16s-3.51.07-5.23.16c-3.12.16-5.57,2.73-5.58,5.86v8.03c.01,3.13,2.46,5.7,5.58,5.86,1.73.09,3.47.16,5.23.16s3.51-.07,5.23-.16c3.12-.16,5.57-2.74,5.58-5.86v-5.31h-12.95v2.59h10.43v2.72c0,1.77-1.39,3.23-3.16,3.33-1.69.1-3.4.17-5.13.17s-3.44-.07-5.13-.17c-1.77-.1-3.15-1.56-3.16-3.33v-8.03c0-1.77,1.39-3.23,3.16-3.33,1.69-.1,3.4-.17,5.13-.17s3.44.07,5.13.17c1.77.1,3.15,1.56,3.16,3.33v.45h2.53v-.45c-.01-3.13-2.46-5.7-5.58-5.86ZM72.49,30.37v13.86h2.53v-13.86c0-1.77,1.45-3.3,3.21-3.3h5.15v-2.53s-3.85,0-5.23,0c-2.75,0-5.65,2.39-5.65,5.83ZM129.54,24.54h-3.16l-8.58,11.39c-.76,1.01-1.18,2.24-1.17,3.51v4.79h2.53v-4.79c0-.72.23-1.42.67-1.99l9.73-12.91ZM110.4,24.54h-3.3l9,10.72,1.56-2.07-7.26-8.65Z"/>
      </g>
      <g id="SIEMENS">
        <path class="cls-1" d="M34.15,11.62h7.68v-3.25h-7.68V3.91h8.82V.34h-14.13v19.73h14.36v-3.77h-9.05v-4.68ZM58.9,12.95L53.94.34h-7.14v19.73h3.88V6.1l5.67,14.17h3.42l5.79-14.17v13.97h5.22V.34h-6.79l-5.09,12.61ZM8.93,7.79c-1.67-.75-2.69-1.25-3.07-1.48-.45-.29-.67-.66-.67-1.11,0-1.22,1.11-1.83,3.32-1.83,1.57,0,3.27.37,5.1,1.1V.72C11.16.24,9.27,0,7.97,0,5.61,0,3.7.51,2.23,1.52.74,2.54,0,4.03,0,5.98c0,1.51.51,2.77,1.53,3.76.79.75,2.48,1.66,5.08,2.73,1.45.59,2.35,1.06,2.7,1.39.33.3.52.72.52,1.17,0,1.25-1.18,1.87-3.54,1.87-1.71,0-3.67-.35-5.89-1.05v3.9c2.01.47,4.06.71,6.12.72,2.4,0,4.35-.45,5.85-1.36,1.86-1.12,2.79-2.75,2.79-4.89,0-1.49-.47-2.7-1.42-3.64-.8-.79-2.4-1.72-4.81-2.79ZM18.27,20.07h5.51V.34h-5.51v19.73ZM81.14,11.62h7.68v-3.25h-7.68V3.91h8.82V.34h-14.13v19.73h14.36v-3.77h-9.05v-4.68ZM128.11,10.58c-.81-.79-2.4-1.72-4.79-2.79-1.7-.76-2.73-1.25-3.08-1.48-.45-.29-.67-.66-.67-1.11,0-1.22,1.1-1.83,3.3-1.83,1.58,0,3.29.37,5.12,1.1V.72l-.49-.08C125.4.21,123.68,0,122.35,0,119.99,0,118.07.51,116.61,1.52c-1.49,1.02-2.23,2.5-2.23,4.45,0,1.53.51,2.79,1.53,3.78.79.76,2.49,1.67,5.08,2.73,1.46.59,2.36,1.06,2.71,1.39.33.3.51.73.5,1.17,0,1.25-1.18,1.87-3.53,1.87-1.73,0-3.69-.35-5.89-1.05v3.9c2.01.47,4.06.71,6.12.72,2.4,0,4.35-.45,5.87-1.36,1.85-1.12,2.77-2.75,2.77-4.89,0-1.49-.47-2.7-1.42-3.64h0ZM106.98,13.55L100.21.34h-6.39v19.73h3.88V6.69l6.96,13.38h6.21V.34h-3.88v13.21Z"/>
      </g>
    </g>
  </g>
</svg>